# File created by Blade
# Date/Time:  Thu Jan 22 15:33:09 2015
#---------------------------------------------------------
:version 1.10
:name HOM
:units
  mass 1.0
  length 1.000000
  angle deg
:documentation
     Acclaim Skeleton File
:root
   axis xyz
   order TX TY TZ RX RY RZ
   position 0.000000 0.000000 0.000000
   orientation 0 0 0
:bonedata
   begin
      id 1
      name RightUpLeg_dum
      direction -1.000000 0.000000 0.000000
      length 3.693983
      axis 0.0 0.0 0.0 xyz
   end
   begin
      id 2
      name LeftUpLeg_dum
      direction 1.000000 0.000000 0.000000
      length 3.693983
      axis 0.0 0.0 0.0 xyz
   end
   begin
      id 3
      name Spine_dum
      direction 0.000000 1.000000 0.000000
      length 2.392956
      axis 0.0 0.0 0.0 xyz
   end
   begin
      id 4
      name RightUpLeg
      direction 0.000000 -1.000000 0.000000
      length 15.795667
      axis 0.0 0.0 0.0 xyz
      dof rx ry rz
   end
   begin
      id 5
      name RightLeg
      direction 0.000000 -1.000000 0.000000
      length 14.766989
      axis 0.0 0.0 0.0 xyz
      dof rx ry rz
   end
   begin
      id 6
      name RightFoot
      direction 0.000000 -0.258819 0.965926
      length 4.962790
      axis 15.0 0.0 0.0 xyz
      dof rx ry rz
   end
   begin
      id 7
      name RightToeBase
      direction 0.000000 0.000000 1.000000
      length 2.952750
      axis 0.0 0.0 0.0 xyz
      dof rx ry rz
   end
   begin
      id 8
      name LeftUpLeg
      direction 0.000000 -1.000000 0.000000
      length 15.795667
      axis 0.0 0.0 0.0 xyz
      dof rx ry rz
   end
   begin
      id 9
      name LeftLeg
      direction 0.000000 -1.000000 0.000000
      length 14.766989
      axis 0.0 0.0 0.0 xyz
      dof rx ry rz
   end
   begin
      id 10
      name LeftFoot
      direction 0.000000 -0.258819 0.965926
      length 4.962790
      axis 15.0 0.0 0.0 xyz
      dof rx ry rz
   end
   begin
      id 11
      name LeftToeBase
      direction 0.000000 0.000000 1.000000
      length 2.952750
      axis 0.0 0.0 0.0 xyz
      dof rx ry rz
   end
   begin
      id 12
      name Spine
      direction 0.000000 1.000000 0.000000
      length 0.000000
      axis 0.0 0.0 0.0 xyz
      dof rx ry rz
   end
   begin
      id 13
      name Spine_dum1
      direction 0.000000 1.000000 0.000000
      length 13.207411
      axis 0.0 0.0 0.0 xyz
   end
   begin
      id 14
      name Spine_dum2
      direction 0.000000 1.000000 0.000000
      length 13.207411
      axis 0.0 0.0 0.0 xyz
   end
   begin
      id 15
      name Spine_dum3
      direction 0.000000 1.000000 0.000000
      length 19.250100
      axis 0.0 0.0 0.0 xyz
   end
   begin
      id 16
      name RightShoulder
      direction -1.000000 0.000000 0.000000
      length 8.140465
      axis 0.0 0.0 90.0 xyz
      dof rx ry rz
   end
   begin
      id 17
      name RightArm
      direction -1.000000 0.000000 0.000000
      length 10.649840
      axis 0.0 0.0 90.0 xyz
      dof rx ry rz
   end
   begin
      id 18
      name RightForeArm
      direction -1.000000 0.000000 0.000000
      length 8.304624
      axis 0.0 0.0 90.0 xyz
      dof ry rz rx
   end
   begin
      id 19
      name RightHand
      direction -1.000000 0.000000 0.000000
      length 0.000000
      axis 0.0 0.0 90.0 xyz
      dof rx ry rz
   end
   begin
      id 20
      name RightHand_dum1
      direction -1.000000 0.000000 0.000000
      length 3.937000
      axis 0.0 0.0 90.0 xyz
   end
   begin
      id 21
      name RightHand_dum2
      direction 0.000000 0.000000 0.000000
      length 0.000000
      axis 0.0 0.0 90.0 xyz
   end
   begin
      id 22
      name RightHandThumb1
      direction 0.000000 0.000000 1.000000
      length 3.937000
      axis 0.0 0.0 90.0 xyz
      dof rx rz ry
   end
   begin
      id 23
      name LeftShoulder
      direction 1.000000 0.000000 0.000000
      length 8.140465
      axis 0.0 0.0 -90.0 xyz
      dof rx ry rz
   end
   begin
      id 24
      name LeftArm
      direction 1.000000 0.000000 0.000000
      length 10.649840
      axis 0.0 0.0 -90.0 xyz
      dof rx ry rz
   end
   begin
      id 25
      name LeftForeArm
      direction 1.000000 0.000000 0.000000
      length 8.304624
      axis 0.0 0.0 -90.0 xyz
      dof ry rz rx
   end
   begin
      id 26
      name LeftHand
      direction 1.000000 0.000000 0.000000
      length 0.000000
      axis 0.0 0.0 -90.0 xyz
      dof rx ry rz
   end
   begin
      id 27
      name LeftHand_dum1
      direction 1.000000 0.000000 0.000000
      length 3.937000
      axis 0.0 0.0 -90.0 xyz
   end
   begin
      id 28
      name LeftHand_dum2
      direction 0.000000 0.000000 0.000000
      length 0.000000
      axis 0.0 0.0 -90.0 xyz
   end
   begin
      id 29
      name LeftHandThumb1
      direction 0.000000 0.000000 1.000000
      length 3.937000
      axis 0.0 0.0 -90.0 xyz
      dof rx rz ry
   end
   begin
      id 30
      name Head
      direction 0.000000 1.000000 0.000000
      length 4.527550
      axis 0.0 0.0 0.0 xyz
      dof rx ry rz
   end
:hierarchy
   begin
      root RightUpLeg_dum LeftUpLeg_dum Spine_dum
      RightUpLeg_dum RightUpLeg
      LeftUpLeg_dum LeftUpLeg
      Spine_dum Spine
      RightUpLeg RightLeg
      RightLeg RightFoot
      RightFoot RightToeBase
      LeftUpLeg LeftLeg
      LeftLeg LeftFoot
      LeftFoot LeftToeBase
      Spine Spine_dum1 Spine_dum2 Spine_dum3
      Spine_dum1 RightShoulder
      Spine_dum2 LeftShoulder
      Spine_dum3 Head
      RightShoulder RightArm
      RightArm RightForeArm
      RightForeArm RightHand
      RightHand RightHand_dum1 RightHand_dum2
      RightHand_dum2 RightHandThumb1
      LeftShoulder LeftArm
      LeftArm LeftForeArm
      LeftForeArm LeftHand
      LeftHand LeftHand_dum1 LeftHand_dum2
      LeftHand_dum2 LeftHandThumb1
   end

# File created by Blade
# Date/Time:  Thu Jan 22 15:33:01 2015
# Frame Rate: 120.000 fps
#------------------------------------------------------
:FULLY-SPECIFIED
:DEGREES
164
root -1.850244 31.773678 -5.166602 43.723569 -37.816083 0.764005
RightUpLeg -66.790542 -18.498033 12.981591
RightLeg 7.209550 -0.000000 -0.000000
RightFoot -12.519376 -11.080664 16.092008
RightToeBase 16.050241 -0.000000 -0.000000
LeftUpLeg -33.842676 17.940920 -12.395992
LeftLeg 5.385161 -0.000000 -0.000000
LeftFoot -17.461608 15.333764 -0.502326
LeftToeBase 1.886898 -0.000000 -0.000000
Spine -39.711971 -3.115144 0.794421
RightShoulder -15.786332 3.158987 -23.701577
RightArm -8.031607 -32.422478 103.673633
RightForeArm 20.570034 -0.000000 1.936518
RightHand 8.563077 0.000000 -0.008697
RightHandThumb1 -24.326973 -0.000000 -32.862282
LeftShoulder -7.079033 10.963050 20.900392
LeftArm 21.948288 41.051280 -86.379475
LeftForeArm 14.035534 0.000000 12.395271
LeftHand -26.381148 -0.000000 8.570257
LeftHandThumb1 -26.253704 0.000000 33.147579
Head 30.348587 24.815919 13.031731
165
root -2.026418 31.734173 -5.119411 44.004855 -38.447063 0.584909
RightUpLeg -66.977380 -18.208010 13.083493
RightLeg 6.796547 -0.000000 -0.000000
RightFoot -12.794847 -11.265221 16.295435
RightToeBase 16.012745 -0.000000 -0.000000
LeftUpLeg -33.840516 18.123555 -12.148742
LeftLeg 5.794031 -0.000000 -0.000000
LeftFoot -17.828209 15.544700 -0.807033
LeftToeBase 1.804766 -0.000000 -0.000000
Spine -39.769200 -3.129072 1.051055
RightShoulder -15.842148 3.028201 -23.676025
RightArm -7.975127 -33.196874 103.418542
RightForeArm 21.261681 -0.000000 2.183245
RightHand 8.679967 -0.000000 -0.534371
RightHandThumb1 -24.326973 -0.000000 -32.862282
LeftShoulder -7.139701 10.991801 20.947624
LeftArm 22.183451 41.012272 -86.099208
LeftForeArm 13.901338 0.000000 12.523137
LeftHand -26.532316 0.000000 8.800774
LeftHandThumb1 -26.253704 0.000000 33.147579
Head 30.544810 25.696381 13.230697
166
root -2.210127 31.691513 -5.071564 44.259523 -39.010246 0.394348
RightUpLeg -67.137378 -17.965089 13.242465
RightLeg 6.527599 -0.000000 -0.000000
RightFoot -13.050274 -11.448003 16.280430
RightToeBase 15.681737 -0.000000 -0.000000
LeftUpLeg -33.796936 18.213432 -11.769309
LeftLeg 6.283988 -0.000000 -0.000000
LeftFoot -18.231729 15.748090 -1.146324
LeftToeBase 1.731549 -0.000000 -0.000000
Spine -39.789104 -3.156053 1.330200
RightShoulder -15.839876 2.962349 -23.681123
RightArm -7.935706 -32.958939 103.069386
RightForeArm 21.159849 -0.000000 2.411801
RightHand 8.824041 -0.000000 -0.748837
RightHandThumb1 -24.326973 -0.000000 -32.862282
LeftShoulder -7.083699 10.957925 21.027754
LeftArm 22.186376 40.745688 -86.019302
LeftForeArm 13.866151 -0.000000 12.693915
LeftHand -26.488188 -0.000000 8.907928
LeftHandThumb1 -26.253704 0.000000 33.147579
Head 30.736865 26.535817 13.440393
167
root -2.395842 31.644611 -5.027083 44.472281 -39.573139 0.192540
RightUpLeg -67.260149 -17.683817 13.326365
RightLeg 6.455574 -0.000000 -0.000000
RightFoot -13.418589 -11.616371 16.375337
RightToeBase 15.529578 -0.000000 -0.000000
LeftUpLeg -33.716271 18.272422 -11.338143
LeftLeg 6.823636 -0.000000 -0.000000
LeftFoot -18.683217 15.993542 -1.553895
LeftToeBase 1.615441 -0.000000 -0.000000
Spine -39.725173 -3.174382 1.599295
RightShoulder -15.820483 2.885735 -23.668892
RightArm -7.841322 -32.743826 102.685657
RightForeArm 21.026024 0.000000 2.629940
RightHand 8.941317 -0.000000 -1.104022
RightHandThumb1 -24.326973 -0.000000 -32.862282
LeftShoulder -7.090227 10.863911 21.120937
LeftArm 22.157087 40.494779 -85.962793
LeftForeArm 13.814847 0.000000 12.863934
LeftHand -26.524495 -0.000000 9.163038
LeftHandThumb1 -26.253704 0.000000 33.147579
Head 30.892166 27.398046 13.658952
168
root -2.585646 31.594616 -4.987048 44.689428 -40.127465 0.027478
RightUpLeg -67.423437 -17.386139 13.353740
RightLeg 6.575361 -0.000000 -0.000000
RightFoot -13.876170 -11.728475 16.514392
RightToeBase 15.754484 -0.000000 -0.000000
LeftUpLeg -33.665241 18.219205 -10.859179
LeftLeg 7.427091 -0.000000 -0.000000
LeftFoot -19.121478 16.280638 -1.930936
LeftToeBase 1.453356 -0.000000 -0.000000
Spine -39.661050 -3.200610 1.826443
RightShoulder -15.814465 2.841435 -23.667688
RightArm -7.763364 -32.278839 102.294241
RightForeArm 20.687285 -0.000000 2.892082
RightHand 9.032580 0.000000 -1.458270
RightHandThumb1 -24.326973 -0.000000 -32.862282
LeftShoulder -7.081592 10.817087 21.218510
LeftArm 22.170825 40.183780 -85.869944
LeftForeArm 13.850368 -0.000000 13.069963
LeftHand -26.609402 0.000000 9.333769
LeftHandThumb1 -26.253704 0.000000 33.147579
Head 30.981525 28.238510 13.845063
